<svg xmlns="http://www.w3.org/2000/svg" width="140" height="140" viewBox="0 0 210 210" fill="none">
  <g clip-path="url(#clip0_6_0)">
    <path d="M66.0754 71.1638H30.7667C26.5089 71.1638 23.0447 74.6279 23.0447 78.8858V106.761C23.0447 111.019 26.5089 114.483 30.7667 114.483H66.075C70.3328 114.483 73.797 111.019 73.797 106.761V78.8858C73.797 74.6279 70.3332 71.1638 66.0754 71.1638ZM67.6446 78.8858V89.7471H51.4968V77.3157H66.075C66.9408 77.3161 67.6446 78.0203 67.6446 78.8858ZM29.197 106.761V78.8858C29.197 78.0203 29.9013 77.3161 30.7667 77.3161H45.3445V108.33H30.7667C29.9013 108.33 29.197 107.626 29.197 106.761ZM66.0754 108.33H51.4972V95.8995H67.6451V106.76C67.6446 107.626 66.9408 108.33 66.0754 108.33Z" fill="#550155"/>
    <path d="M23.0447 150.022C23.0447 151.721 24.422 153.098 26.1208 153.098H116.643C118.342 153.098 119.719 151.721 119.719 150.022C119.719 148.323 118.342 146.946 116.643 146.946H26.1208C24.422 146.946 23.0447 148.323 23.0447 150.022Z" fill="#550155"/>
    <path d="M26.1208 158.662C24.422 158.662 23.0447 160.039 23.0447 161.739C23.0447 163.438 24.422 164.815 26.1208 164.815H71.382C73.0809 164.815 74.4582 163.438 74.4582 161.739C74.4582 160.039 73.0809 158.662 71.382 158.662H26.1208Z" fill="#550155"/>
    <path d="M80.7507 135.346V127.909C80.7507 126.21 79.3734 124.833 77.6746 124.833C75.9757 124.833 74.5984 126.21 74.5984 127.909V135.346C74.5984 137.046 75.9757 138.422 77.6746 138.422C79.3734 138.422 80.7507 137.046 80.7507 135.346Z" fill="#550155"/>
    <path d="M94.8113 135.346V127.909C94.8113 126.21 93.434 124.833 91.7351 124.833C90.0362 124.833 88.6589 126.21 88.6589 127.909V135.346C88.6589 137.046 90.0362 138.422 91.7351 138.422C93.434 138.422 94.8113 137.046 94.8113 135.346Z" fill="#550155"/>
    <path d="M108.871 135.346V127.909C108.871 126.21 107.494 124.833 105.795 124.833C104.096 124.833 102.719 126.21 102.719 127.909V135.346C102.719 137.046 104.096 138.422 105.795 138.422C107.494 138.422 108.871 137.046 108.871 135.346Z" fill="#550155"/>
    <path d="M122.932 135.346V127.909C122.932 126.21 121.554 124.833 119.855 124.833C118.157 124.833 116.779 126.21 116.779 127.909V135.346C116.779 137.046 118.157 138.422 119.855 138.422C121.554 138.422 122.932 137.046 122.932 135.346Z" fill="#550155"/>
    <path d="M140.213 127.909V135.346C140.213 137.046 141.59 138.422 143.289 138.422C144.988 138.422 146.365 137.046 146.365 135.346V127.909C146.365 126.21 144.988 124.833 143.289 124.833C141.59 124.833 140.213 126.21 140.213 127.909Z" fill="#550155"/>
    <path d="M154.273 127.909V135.346C154.273 137.046 155.65 138.422 157.349 138.422C159.048 138.422 160.425 137.046 160.425 135.346V127.909C160.425 126.21 159.048 124.833 157.349 124.833C155.65 124.833 154.273 126.21 154.273 127.909Z" fill="#550155"/>
    <path d="M168.333 127.909V135.346C168.333 137.046 169.71 138.422 171.409 138.422C173.108 138.422 174.485 137.046 174.485 135.346V127.909C174.485 126.21 173.108 124.833 171.409 124.833C169.71 124.833 168.333 126.21 168.333 127.909Z" fill="#550155"/>
    <path d="M26.1208 138.422C27.8197 138.422 29.197 137.046 29.197 135.346V127.909C29.197 126.21 27.8197 124.833 26.1208 124.833C24.422 124.833 23.0447 126.21 23.0447 127.909V135.346C23.0447 137.046 24.422 138.422 26.1208 138.422Z" fill="#550155"/>
    <path d="M43.2571 135.346V127.909C43.2571 126.21 41.8798 124.833 40.1809 124.833C38.482 124.833 37.1047 126.21 37.1047 127.909V135.346C37.1047 137.046 38.482 138.422 40.1809 138.422C41.8798 138.422 43.2571 137.046 43.2571 135.346Z" fill="#550155"/>
    <path d="M57.3171 135.346V127.909C57.3171 126.21 55.9398 124.833 54.241 124.833C52.5421 124.833 51.1648 126.21 51.1648 127.909V135.346C51.1648 137.046 52.5421 138.422 54.241 138.422C55.9398 138.422 57.3171 137.046 57.3171 135.346Z" fill="#550155"/>
    <path d="M210 58.1704C210 40.9381 195.98 26.919 178.749 26.919C163.314 26.919 150.466 38.1687 147.951 52.8974H68.3525C66.6537 52.8974 65.2764 54.2743 65.2764 55.9736C65.2764 57.6729 66.6537 59.0498 68.3525 59.0498H147.509C147.98 75.9847 161.957 89.4153 178.737 89.4214C178.741 89.4214 178.744 89.4219 178.749 89.4219C178.749 89.4219 178.753 89.4219 178.749 89.4219C178.752 89.4219 178.755 89.4214 178.759 89.4214C183.252 89.4198 187.609 88.4313 191.378 86.764V138.496C191.378 140.195 192.755 141.572 194.454 141.572C196.153 141.572 197.53 140.195 197.53 138.496V83.1301C205.098 77.4215 210 68.3583 210 58.1704ZM178.749 33.0713C192.588 33.0713 203.848 44.3309 203.848 58.1704C203.848 72.0366 192.556 83.2691 178.749 83.2691C164.638 83.2691 153.099 71.5243 153.675 57.1536C154.319 43.3314 165.609 33.0713 178.749 33.0713Z" fill="#550155"/>
    <path d="M170.239 70.0096C171.28 71.697 173.626 71.9742 175.032 70.5694L194.929 50.6723C196.13 49.4706 196.13 47.5232 194.929 46.3218C193.727 45.1209 191.78 45.1209 190.579 46.3218L173.432 63.4688L166.797 52.7178C165.906 51.272 164.01 50.8237 162.564 51.7154C161.118 52.6079 160.67 54.5032 161.562 55.9486L170.239 70.0096Z" fill="#550155"/>
    <path d="M194.454 149.775C192.755 149.775 191.378 151.152 191.378 152.851V165.538C191.378 171.819 186.268 176.929 179.987 176.929H17.5432C11.2621 176.929 6.15234 171.819 6.15234 165.538V70.4406C6.15234 64.1599 11.2621 59.0498 17.5432 59.0498H53.9971C55.6959 59.0498 57.0732 57.6729 57.0732 55.9736C57.0732 54.2743 55.6959 52.8974 53.9971 52.8974H17.5432C7.87008 52.8974 0 60.7671 0 70.4406V165.538C0 175.211 7.87008 183.081 17.5432 183.081H179.987C189.66 183.081 197.53 175.211 197.53 165.538V152.851C197.53 151.152 196.153 149.775 194.454 149.775Z" fill="#550155"/>
    <path d="M178.207 109.753V100.66C178.207 98.0524 176.085 95.9306 173.477 95.9306H142.063C139.455 95.9306 137.334 98.0524 137.334 100.66V109.753C137.334 112.361 139.455 114.483 142.063 114.483H173.477C176.085 114.483 178.207 112.361 178.207 109.753ZM172.054 108.33H143.486V102.083H172.054V108.33Z" fill="#550155"/>
  </g>
  <defs>
    <clipPath id="clip0_6_0">
      <rect width="210" height="210" fill="white"/>
    </clipPath>
  </defs>
</svg>