<svg xmlns="http://www.w3.org/2000/svg" width="21" height="21" viewBox="0 0 39 39" fill="none">
  <path d="M33.8862 0.814105C33.9456 0.962934 33.975 1.12201 33.9728 1.28223C33.9707 1.44245 33.9369 1.60066 33.8735 1.74782C33.8101 1.89498 33.7183 2.0282 33.6034 2.13985C33.4885 2.25149 33.3526 2.33938 33.2037 2.39848L27.7096 4.59711L26.7346 9.29417C27.6511 9.52573 28.4774 9.81823 29.1038 10.1887C29.6596 10.5178 30.4688 11.154 30.4688 12.1875C30.4688 12.2996 30.4591 12.4069 30.442 12.5092L28.0971 34.6125C28.0599 35.06 27.9265 35.4942 27.7061 35.8854C27.4857 36.2766 27.1834 36.6157 26.8199 36.8794C25.6304 37.7081 23.1783 39 19.483 39C15.7878 39 13.3356 37.7081 12.1461 36.8794C11.7827 36.6157 11.4804 36.2766 11.2599 35.8854C11.0395 35.4942 10.9061 35.06 10.8689 34.6125L8.55571 12.5092C8.53848 12.4029 8.53033 12.2952 8.53133 12.1875C8.53133 11.154 9.34058 10.5178 9.89633 10.1887C10.535 9.81335 11.3759 9.51598 12.3095 9.28198C14.1961 8.8091 16.7384 8.53123 19.5001 8.53123C21.2356 8.53123 22.8858 8.64092 24.3385 8.84079L25.4695 3.44173C25.5126 3.24786 25.6024 3.06746 25.7311 2.91622C25.8599 2.76499 26.0236 2.6475 26.2081 2.57398L32.3018 0.13648C32.6018 0.0163102 32.9372 0.020187 33.2343 0.147258C33.5314 0.274329 33.7659 0.514191 33.8862 0.814105ZM23.8096 11.2295C22.38 11.0517 20.9407 10.9646 19.5001 10.9687C16.8773 10.9687 14.5446 11.2369 12.9018 11.6464C12.3578 11.7712 11.8285 11.9525 11.3223 12.1875C11.6781 12.3654 12.2046 12.5531 12.9018 12.7286C14.5446 13.1381 16.8773 13.4062 19.5001 13.4062C20.8919 13.4062 22.2033 13.3331 23.3708 13.199L23.8096 11.2295ZM24.5213 15.5098C23.0223 15.7219 21.3087 15.8437 19.5001 15.8437C16.7384 15.8437 14.1961 15.5659 12.3095 15.093C11.9519 15.0044 11.5982 14.9011 11.2491 14.7834L13.2918 34.3565C13.3235 34.6515 13.438 34.8099 13.5404 34.8806C14.4106 35.4875 16.3874 36.5625 19.483 36.5625C22.5786 36.5625 24.5555 35.4875 25.4256 34.8806C25.528 34.8099 25.645 34.6515 25.6743 34.3565L27.751 14.7834C27.402 14.9011 27.0482 15.0044 26.6907 15.093C25.9751 15.2679 25.251 15.4062 24.5213 15.5074V15.5098ZM10.8884 11.9047C10.8884 11.9047 10.8957 11.9096 10.9006 11.9194L10.8884 11.9047ZM28.1118 11.9047L28.0996 11.9194C28.1045 11.9096 28.1118 11.9047 28.1118 11.9047ZM27.6755 12.1875C27.2032 11.9677 26.7099 11.7962 26.2032 11.6756L25.9619 12.7603L26.096 12.7286C26.7931 12.5531 27.3196 12.3654 27.6755 12.1875Z" fill="#550155"/>
</svg>