<svg xmlns="http://www.w3.org/2000/svg" width="140" height="140" viewBox="0 0 247 246" fill="none">
  <path d="M97.4902 72.1299C96.5461 72.5359 95.6034 72.9659 94.6883 73.4075C94.3462 73.5726 94.0401 73.8033 93.7875 74.0862C93.5349 74.3692 93.3407 74.6989 93.2161 75.0566C93.0914 75.4144 93.0387 75.793 93.061 76.171C93.0833 76.549 93.1801 76.9189 93.3459 77.2596C93.5118 77.6003 93.7434 77.9052 94.0275 78.1568C94.3116 78.4083 94.6427 78.6017 95.0018 78.7259C95.361 78.85 95.7412 78.9025 96.1207 78.8803C96.5002 78.8581 96.8717 78.7617 97.2138 78.5965C98.0527 78.1915 98.9177 77.797 99.7846 77.4247C100.489 77.1216 101.045 76.5521 101.328 75.8415C101.611 75.1308 101.599 74.3372 101.295 73.6352C100.991 72.9332 100.419 72.3803 99.7054 72.0982C98.9919 71.8161 98.195 71.8278 97.4902 72.1308V72.1299Z" fill="#550155"/>
  <path d="M86.4119 78.1285C79.2767 82.8433 73.1408 88.9079 68.3524 95.978C68.1387 96.2921 67.9893 96.6453 67.9129 97.0171C67.8365 97.3889 67.8346 97.7721 67.9072 98.1446C67.9798 98.5172 68.1256 98.8718 68.3362 99.1881C68.5467 99.5044 68.8179 99.7762 69.1342 99.9879C69.4505 100.2 69.8056 100.347 70.1792 100.422C70.5529 100.496 70.9376 100.497 71.3114 100.423C71.6852 100.349 72.0406 100.203 72.3574 99.9916C72.6742 99.7807 72.946 99.5096 73.1574 99.1937C77.5253 92.7478 83.122 87.2192 89.6296 82.9217C90.2678 82.4967 90.7104 81.8367 90.8599 81.0867C91.0095 80.3368 90.8538 79.5584 90.4271 78.9228C90.0004 78.2871 89.3376 77.8464 88.5846 77.6974C87.8316 77.5485 87.0501 77.7036 86.4119 78.1285Z" fill="#550155"/>
  <path d="M33.6527 226.685C33.6526 228.37 34.1542 230.017 35.0939 231.418C36.0337 232.819 37.3695 233.911 38.9323 234.555C40.4952 235.2 42.2149 235.369 43.874 235.04C45.5332 234.712 47.0572 233.9 48.2533 232.709C49.4495 231.518 50.2641 230 50.5941 228.347C50.9241 226.695 50.7547 224.982 50.1073 223.426C49.4599 221.869 48.3636 220.539 46.957 219.603C45.5504 218.667 43.8967 218.167 42.2051 218.167C39.9376 218.17 37.7638 219.068 36.1605 220.665C34.5571 222.262 33.6553 224.427 33.6527 226.685ZM44.9689 226.685C44.969 227.23 44.807 227.762 44.5033 228.215C44.1997 228.667 43.7681 229.02 43.2631 229.229C42.7581 229.437 42.2023 229.492 41.6662 229.385C41.13 229.279 40.6375 229.017 40.251 228.632C39.8644 228.247 39.6011 227.757 39.4944 227.223C39.3877 226.689 39.4425 226.135 39.6516 225.632C39.8608 225.129 40.215 224.699 40.6695 224.397C41.1241 224.094 41.6584 223.933 42.2051 223.933C42.9378 223.934 43.6403 224.224 44.1585 224.74C44.6767 225.256 44.9681 225.955 44.9689 226.685Z" fill="#550155"/>
  <path d="M229.364 116.273H223.27C214.441 77.8998 179.943 49.4474 138.455 45.2823V35.5595C140.728 33.8559 142.577 31.6536 143.857 29.1234C145.137 26.5932 145.814 23.8032 145.836 20.9701C145.836 16.1934 143.931 11.6124 140.54 8.2348C137.148 4.8572 132.549 2.95969 127.753 2.95969C122.957 2.95969 118.357 4.8572 114.966 8.2348C111.574 11.6124 109.669 16.1934 109.669 20.9701C109.669 26.9663 112.404 32.2841 117.228 35.5595V45.2827C75.2578 49.4484 40.8298 77.9032 32.001 116.273H26.1111C20.2019 116.273 15.178 120.867 15 126.748C14.9572 128.199 15.2079 129.644 15.7372 130.997C16.2666 132.35 17.0637 133.583 18.0811 134.623C19.0986 135.663 20.3156 136.488 21.6599 137.05C23.0042 137.612 24.4482 137.9 25.9061 137.895H26.472L28.3534 148.039C28.8771 150.86 30.377 153.409 32.5923 155.242C34.8075 157.076 37.5978 158.078 40.4781 158.074H73.3933C69.988 159.447 66.7769 161.256 63.8413 163.455C63.7781 163.504 63.7164 163.552 63.6575 163.606L57.8077 168.793C55.6242 170.724 53.0431 172.156 50.2452 172.989L50.1309 172.563C49.8314 171.576 49.223 170.71 48.3946 170.091C47.5661 169.473 46.561 169.134 45.5257 169.125H11.5487C10.8007 169.139 10.0657 169.322 9.39976 169.662C8.73386 170.002 8.15466 170.488 7.70637 171.085C7.25807 171.682 6.95253 172.372 6.81305 173.104C6.67357 173.836 6.70384 174.59 6.90155 175.309L24.8539 239.548C25.1359 240.564 25.7414 241.461 26.5794 242.105C27.4173 242.748 28.4424 243.104 29.5006 243.117H65.4526C66.2091 243.109 66.9531 242.925 67.626 242.581C68.2989 242.236 68.8822 241.741 69.3298 241.133C69.7774 240.526 70.077 239.823 70.2049 239.081C70.3329 238.338 70.2856 237.576 70.067 236.855L65.3079 221.298L82.4942 210.472C84.7582 209.226 87.4129 208.884 89.9206 209.515C89.9804 209.53 90.0407 209.542 90.1015 209.553L125.419 216.029C127.022 216.318 128.64 216.522 130.265 216.639C140.331 217.289 150.321 214.525 158.609 208.797L215.263 170.056C215.871 169.64 216.297 169.008 216.453 168.29C216.61 167.572 216.485 166.822 216.104 166.192C214.759 163.96 212.916 162.066 210.717 160.659C208.519 159.251 206.024 158.366 203.427 158.074H214.498C217.328 158.068 220.071 157.095 222.268 155.317C224.464 153.539 225.982 151.065 226.568 148.307L228.741 137.895H229.16C235.069 137.895 240.093 133.301 240.271 127.42C240.314 125.969 240.063 124.524 239.534 123.171C239.004 121.818 238.207 120.585 237.189 119.545C236.172 118.505 234.955 117.679 233.61 117.117C232.266 116.555 230.822 116.268 229.364 116.273ZM115.34 20.9701C115.34 18.5479 116.061 16.1802 117.412 14.1663C118.763 12.1523 120.683 10.5826 122.93 9.65567C125.177 8.72872 127.649 8.48617 130.035 8.95867C132.42 9.43118 134.611 10.5975 136.33 12.3102C138.05 14.0229 139.221 16.205 139.696 18.5806C140.17 20.9562 139.926 23.4185 138.996 25.6562C138.065 27.8939 136.489 29.8065 134.467 31.1521C132.445 32.4977 130.067 33.2159 127.635 33.2158C124.376 33.2121 121.25 31.9207 118.945 29.625C116.64 27.3293 115.344 24.2167 115.34 20.9701ZM132.666 38.3332V44.8638C130.736 44.7922 129.449 44.7528 127.842 44.7528C126.234 44.7528 124.465 44.7922 123.018 44.8638V38.3332C124.588 38.7685 126.212 38.9866 127.842 38.9814C129.47 38.9548 131.089 38.7373 132.666 38.3332ZM127.635 50.5184C170.716 50.5184 207.831 77.9647 217.318 116.273H37.9521C47.4409 77.9676 84.5647 50.5184 127.635 50.5184ZM30.2339 237.352L12.8185 174.891H44.8653L64.1621 237.352H30.2339ZM209.468 167.024L155.331 204.044C148.126 209.031 139.438 211.443 130.682 210.888C129.266 210.786 127.856 210.609 126.459 210.357L91.2356 203.897C87.2986 202.931 83.1397 203.493 79.604 205.471C79.5586 205.496 79.5138 205.522 79.4699 205.549L63.5374 215.581L51.9665 178.505C55.552 177.424 58.8586 175.58 61.6569 173.1L67.4161 167.994C72.7212 164.025 79.0232 161.59 85.6283 160.958C92.2333 160.326 98.8853 161.522 104.852 164.414L107.275 165.581C111.461 167.591 116.048 168.638 120.696 168.645H144.19C147.525 168.649 150.759 169.79 153.352 171.88C155.946 173.969 157.743 176.88 158.444 180.128L141.748 179.375C135.541 179.096 129.322 179.382 123.168 180.23C122.792 180.282 122.429 180.407 122.101 180.598C121.773 180.79 121.486 181.044 121.257 181.346C121.027 181.648 120.86 181.992 120.764 182.358C120.668 182.725 120.646 183.106 120.698 183.481C120.75 183.856 120.876 184.217 121.068 184.544C121.26 184.871 121.516 185.156 121.819 185.385C122.122 185.613 122.467 185.78 122.835 185.875C123.203 185.971 123.586 185.993 123.963 185.941C129.767 185.142 135.633 184.872 141.487 185.135L161.527 186.038C161.571 186.038 161.615 186.041 161.659 186.041C162.426 186.041 163.163 185.738 163.705 185.197C164.248 184.656 164.553 183.923 164.553 183.159C164.553 182.785 164.541 182.414 164.521 182.045L196.15 165.084C198.283 163.934 200.732 163.501 203.132 163.851C205.533 164.2 207.755 165.313 209.468 167.024ZM104.765 158.074H147.115L138.244 162.879H120.696C116.921 162.874 113.196 162.023 109.796 160.391L107.373 159.223C106.512 158.81 105.643 158.427 104.765 158.074ZM156.022 166.668C153.969 165.199 151.658 164.126 149.209 163.502L154.218 160.789C154.241 160.777 154.266 160.764 154.287 160.751C158.137 158.528 163.027 158.632 167.044 160.751L156.022 166.668ZM177.965 161.441C180.969 159.946 184.719 161.092 187.234 163.321L163.306 176.165C162.601 174.268 161.615 172.487 160.382 170.88L177.965 161.441ZM189.985 158.074H199.561C197.403 158.322 195.312 158.978 193.401 160.008L192.548 160.466C191.787 159.575 190.927 158.772 189.985 158.074ZM229.364 132.129H75.2578C74.4902 132.129 73.7539 132.433 73.2111 132.973C72.6683 133.514 72.3633 134.247 72.3633 135.012C72.3633 135.776 72.6683 136.51 73.2111 137.05C73.7539 137.591 74.4902 137.895 75.2578 137.895H222.831L220.901 147.134C220.59 148.597 219.785 149.909 218.619 150.851C217.454 151.792 215.999 152.307 214.498 152.309H40.4781C38.9513 152.312 37.4718 151.781 36.2971 150.81C35.1223 149.839 34.3268 148.488 34.0489 146.993L32.3599 137.895H58.8555C59.6232 137.895 60.3594 137.591 60.9022 137.05C61.4451 136.51 61.75 135.776 61.75 135.012C61.75 134.247 61.4451 133.514 60.9022 132.973C60.3594 132.433 59.6232 132.129 58.8555 132.129H26.0161C24.6566 132.145 23.3455 131.627 22.3664 130.687C21.3873 129.748 20.8187 128.462 20.7837 127.108C20.7824 126.44 20.9143 125.777 21.1716 125.16C21.429 124.542 21.8068 123.981 22.2831 123.51C22.7594 123.038 23.3249 122.665 23.9468 122.413C24.5686 122.161 25.2346 122.034 25.9061 122.039H229.255C230.615 122.023 231.926 122.541 232.905 123.481C233.884 124.42 234.452 125.706 234.487 127.059C234.488 127.728 234.356 128.391 234.099 129.009C233.842 129.627 233.464 130.187 232.987 130.659C232.511 131.13 231.945 131.503 231.323 131.755C230.701 132.008 230.035 132.135 229.364 132.129Z" fill="#550155"/>
</svg>