<svg xmlns="http://www.w3.org/2000/svg" width="140" height="140" viewBox="0 0 196 196" fill="none">
  <g clip-path="url(#clip0_8_0)">
    <path d="M166.536 65.4964C166.534 65.4964 166.532 65.4964 166.53 65.4964H2.80622C1.25822 65.4947 0.00163884 66.748 1.60226e-06 68.296C1.60226e-06 68.2981 1.60226e-06 68.3005 1.60226e-06 68.3026V146.89C-0.00163563 148.438 1.25167 149.694 2.79967 149.696C2.80172 149.696 2.80418 149.696 2.80622 149.696H114.138C115.688 149.696 116.944 148.44 116.944 146.89C116.944 145.34 115.688 144.084 114.138 144.084H5.61244V71.1088H163.724V78.126C163.722 79.674 164.975 80.9306 166.523 80.9322C166.525 80.9322 166.528 80.9322 166.53 80.9322C168.078 80.9339 169.334 79.6806 169.336 78.1326C169.336 78.1305 169.336 78.128 169.336 78.126V68.3026C169.338 66.7546 168.084 65.4984 166.536 65.4964Z" fill="#550155"/>
    <path d="M147.498 52.4672L16.5196 22.997C15.7927 22.8345 15.031 22.9663 14.401 23.3638C13.7719 23.7645 13.327 24.3977 13.1633 25.1254L6.61436 54.5957C6.2779 56.1093 7.23241 57.609 8.74604 57.9454C10.2597 58.2819 11.7594 57.3274 12.0958 55.8138L18.0324 29.0908L146.267 57.9422C146.47 57.9892 146.678 58.0126 146.886 58.0109C148.436 58.0081 149.69 56.7494 149.687 55.1998C149.685 53.8896 148.776 52.7558 147.498 52.4672Z" fill="#550155"/>
    <path d="M131.594 36.2292L53.0069 3.48445C51.641 2.9151 50.0672 3.50001 49.405 4.82371L42.856 17.9216C42.1164 19.2895 42.6256 20.9984 43.9939 21.738C45.3618 22.4776 47.0707 21.9684 47.8103 20.6001C47.8394 20.5465 47.8668 20.4916 47.8922 20.436V20.4425L53.2656 9.68917L129.426 41.4221C130.861 42.0205 132.509 41.3435 133.107 39.9093C133.705 38.4759 133.028 36.828 131.594 36.2292Z" fill="#550155"/>
    <path d="M133.579 78.5943H107.589C106.04 78.5943 104.783 79.8508 104.783 81.4005C104.783 82.9501 106.04 84.2067 107.589 84.2067H133.579C135.129 84.2067 136.385 82.9501 136.385 81.4005C136.385 79.8508 135.129 78.5943 133.579 78.5943Z" fill="#550155"/>
    <path d="M81.3935 78.7809C65.4791 78.7809 52.5781 91.6819 52.5781 107.596C52.5945 123.504 65.4861 136.395 81.3935 136.412C97.3078 136.412 110.209 123.511 110.209 107.596C110.209 91.6819 97.3078 78.7809 81.3935 78.7809ZM81.3935 131.172C68.3725 131.172 57.8173 120.617 57.8173 107.596C57.8316 94.5815 68.3787 84.0344 81.3935 84.0201C94.4144 84.0201 104.97 94.5753 104.97 107.596C104.97 120.617 94.4144 131.172 81.3935 131.172Z" fill="#550155"/>
    <path d="M159.981 87.9494C142.626 87.9494 123.961 92.0491 123.961 101.047V179.635C123.961 188.633 142.626 192.732 159.981 192.732C177.335 192.732 196 188.633 196 179.635V101.047C196 92.0491 177.335 87.9494 159.981 87.9494ZM189.451 179.585C188.956 181.403 179.136 186.184 159.981 186.184C140.825 186.184 131.005 181.403 130.51 179.635V174.487C137.478 177.997 148.988 179.635 159.981 179.635C170.973 179.635 182.486 177.981 189.451 174.484V179.585ZM189.451 166.488C188.956 168.305 179.136 173.086 159.981 173.086C140.825 173.086 131.005 168.305 130.51 166.537V161.389C137.478 164.899 148.988 166.537 159.981 166.537C170.973 166.537 182.486 164.883 189.451 161.386V166.488ZM189.451 153.39C188.956 155.207 179.136 159.988 159.981 159.988C140.825 159.988 131.005 155.207 130.51 153.439V148.291C137.478 151.802 148.988 153.439 159.981 153.439C170.973 153.439 182.486 151.785 189.451 148.288V153.39ZM189.451 140.292C188.956 142.109 179.136 146.89 159.981 146.89C140.825 146.89 131.005 142.109 130.51 140.341V135.193C137.478 138.704 148.988 140.341 159.981 140.341C170.973 140.341 182.486 138.687 189.451 135.19V140.292ZM189.451 127.194C188.956 129.011 179.136 133.792 159.981 133.792C140.825 133.792 131.005 129.011 130.51 127.243V122.096C137.478 125.589 148.988 127.243 159.981 127.243C170.973 127.243 182.486 125.589 189.451 122.092V127.194ZM189.451 114.096C188.956 115.913 179.136 120.694 159.981 120.694C140.825 120.694 131.005 115.913 130.51 114.145V108.998C137.478 112.492 148.988 114.145 159.981 114.145C170.973 114.145 182.486 112.492 189.451 108.994V114.096ZM159.981 107.596C140.854 107.596 131.038 102.829 130.51 101.106V101.087C131.038 99.2627 140.854 94.4984 159.981 94.4984C178.973 94.4984 188.796 99.194 189.451 101.047C188.796 102.901 178.973 107.596 159.981 107.596Z" fill="#550155"/>
    <path d="M55.1979 130.983H30.4462L18.7104 118.147V96.8625L31.6708 84.2067H55.1979C56.7475 84.2067 58.0041 82.9501 58.0041 81.4005C58.0041 79.8508 56.7475 78.5942 55.1979 78.5942H30.5313C29.7978 78.5926 29.0926 78.8783 28.5666 79.3899L13.9395 93.6568C13.3931 94.2953 13.0935 95.1086 13.0947 95.9489V119.237C13.0947 119.937 13.3563 120.612 13.8282 121.13L27.1324 135.681C27.6641 136.263 28.4164 136.595 29.2051 136.595H55.1979C56.7475 136.595 58.0041 135.338 58.0041 133.789C58.0041 132.239 56.7479 130.983 55.1979 130.983Z" fill="#550155"/>
    <path d="M83.031 104.322H79.7565C78.7381 104.322 78.1193 103.752 78.1193 103.503C78.1193 103.254 78.7381 102.685 79.7565 102.685H87.9427C89.751 102.685 91.2171 101.218 91.2171 99.4101C91.2171 97.6017 89.751 96.1356 87.9427 96.1356H84.6682C84.6682 94.3273 83.2021 92.8611 81.3937 92.8611C79.5854 92.8611 78.1193 94.3273 78.1193 96.1356V96.283C74.4875 96.7958 71.7361 99.8226 71.5703 103.487C71.8048 107.78 75.4616 111.079 79.7565 110.871H83.031C84.0493 110.871 84.6682 111.44 84.6682 111.689C84.6682 111.938 84.0493 112.508 83.031 112.508H74.8448C73.0365 112.508 71.5703 113.974 71.5703 115.782C71.5703 117.591 73.0365 119.057 74.8448 119.057H78.1193C78.1193 120.865 79.5854 122.331 81.3937 122.331C83.2021 122.331 84.6682 120.865 84.6682 119.057V118.91C88.3 118.397 91.0514 115.37 91.2171 111.706C90.9826 107.412 87.3258 104.114 83.031 104.322Z" fill="#550155"/>
  </g>
  <defs>
    <clipPath id="clip0_8_0">
      <rect width="196" height="196" fill="white"/>
    </clipPath>
  </defs>
</svg>